<svg width="105" height="51" viewBox="0 0 105 51" fill="none" xmlns="http://www.w3.org/2000/svg">
<path d="M4.8707 -4.76837e-07V37H0.320703V-4.76837e-07H4.8707ZM24.5754 37.45C22.0087 37.45 19.6754 36.8667 17.5754 35.7C15.5087 34.5333 13.8754 32.8833 12.6754 30.75C11.5087 28.5833 10.9254 26.0833 10.9254 23.25C10.9254 20.45 11.5254 17.9833 12.7254 15.85C13.9587 13.6833 15.6254 12.0333 17.7254 10.9C19.8254 9.73333 22.1754 9.15 24.7754 9.15C27.3754 9.15 29.7254 9.73333 31.8254 10.9C33.9254 12.0333 35.5754 13.6667 36.7754 15.8C38.0087 17.9333 38.6254 20.4167 38.6254 23.25C38.6254 26.0833 37.9921 28.5833 36.7254 30.75C35.4921 32.8833 33.8087 34.5333 31.6754 35.7C29.5421 36.8667 27.1754 37.45 24.5754 37.45ZM24.5754 33.45C26.2087 33.45 27.7421 33.0667 29.1754 32.3C30.6087 31.5333 31.7587 30.3833 32.6254 28.85C33.5254 27.3167 33.9754 25.45 33.9754 23.25C33.9754 21.05 33.5421 19.1833 32.6754 17.65C31.8087 16.1167 30.6754 14.9833 29.2754 14.25C27.8754 13.4833 26.3587 13.1 24.7254 13.1C23.0587 13.1 21.5254 13.4833 20.1254 14.25C18.7587 14.9833 17.6587 16.1167 16.8254 17.65C15.9921 19.1833 15.5754 21.05 15.5754 23.25C15.5754 25.4833 15.9754 27.3667 16.7754 28.9C17.6087 30.4333 18.7087 31.5833 20.0754 32.35C21.4421 33.0833 22.9421 33.45 24.5754 33.45ZM55.9078 9.15C58.2745 9.15 60.3411 9.66666 62.1078 10.7C63.9078 11.7333 65.2411 13.0333 66.1078 14.6V9.6H70.7078V37.6C70.7078 40.1 70.1745 42.3167 69.1078 44.25C68.0411 46.2167 66.5078 47.75 64.5078 48.85C62.5411 49.95 60.2411 50.5 57.6078 50.5C54.0078 50.5 51.0078 49.65 48.6078 47.95C46.2078 46.25 44.7911 43.9333 44.3578 41H48.8578C49.3578 42.6667 50.3911 44 51.9578 45C53.5245 46.0333 55.4078 46.55 57.6078 46.55C60.1078 46.55 62.1411 45.7667 63.7078 44.2C65.3078 42.6333 66.1078 40.4333 66.1078 37.6V31.85C65.2078 33.45 63.8745 34.7833 62.1078 35.85C60.3411 36.9167 58.2745 37.45 55.9078 37.45C53.4745 37.45 51.2578 36.85 49.2578 35.65C47.2911 34.45 45.7411 32.7667 44.6078 30.6C43.4745 28.4333 42.9078 25.9667 42.9078 23.2C42.9078 20.4 43.4745 17.95 44.6078 15.85C45.7411 13.7167 47.2911 12.0667 49.2578 10.9C51.2578 9.73333 53.4745 9.15 55.9078 9.15ZM66.1078 23.25C66.1078 21.1833 65.6911 19.3833 64.8578 17.85C64.0245 16.3167 62.8911 15.15 61.4578 14.35C60.0578 13.5167 58.5078 13.1 56.8078 13.1C55.1078 13.1 53.5578 13.5 52.1578 14.3C50.7578 15.1 49.6411 16.2667 48.8078 17.8C47.9745 19.3333 47.5578 21.1333 47.5578 23.2C47.5578 25.3 47.9745 27.1333 48.8078 28.7C49.6411 30.2333 50.7578 31.4167 52.1578 32.25C53.5578 33.05 55.1078 33.45 56.8078 33.45C58.5078 33.45 60.0578 33.05 61.4578 32.25C62.8911 31.4167 64.0245 30.2333 64.8578 28.7C65.6911 27.1333 66.1078 25.3167 66.1078 23.25ZM90.3469 37.45C87.7802 37.45 85.4469 36.8667 83.3469 35.7C81.2802 34.5333 79.6469 32.8833 78.4469 30.75C77.2802 28.5833 76.6969 26.0833 76.6969 23.25C76.6969 20.45 77.2969 17.9833 78.4969 15.85C79.7302 13.6833 81.3969 12.0333 83.4969 10.9C85.5969 9.73333 87.9469 9.15 90.5469 9.15C93.1469 9.15 95.4969 9.73333 97.5969 10.9C99.6969 12.0333 101.347 13.6667 102.547 15.8C103.78 17.9333 104.397 20.4167 104.397 23.25C104.397 26.0833 103.764 28.5833 102.497 30.75C101.264 32.8833 99.5802 34.5333 97.4469 35.7C95.3135 36.8667 92.9469 37.45 90.3469 37.45ZM90.3469 33.45C91.9802 33.45 93.5135 33.0667 94.9469 32.3C96.3802 31.5333 97.5302 30.3833 98.3969 28.85C99.2969 27.3167 99.7469 25.45 99.7469 23.25C99.7469 21.05 99.3135 19.1833 98.4469 17.65C97.5802 16.1167 96.4469 14.9833 95.0469 14.25C93.6469 13.4833 92.1302 13.1 90.4969 13.1C88.8302 13.1 87.2969 13.4833 85.8969 14.25C84.5302 14.9833 83.4302 16.1167 82.5969 17.65C81.7635 19.1833 81.3469 21.05 81.3469 23.25C81.3469 25.4833 81.7469 27.3667 82.5469 28.9C83.3802 30.4333 84.4802 31.5833 85.8469 32.35C87.2135 33.0833 88.7135 33.45 90.3469 33.45Z" fill="black"/>
</svg>
